<?xml version="1.0" encoding="utf-8"?>
<!-- Generator: Adobe Illustrator 16.0.0, SVG Export Plug-In . SVG Version: 6.00 Build 0)  -->
<!DOCTYPE svg PUBLIC "-//W3C//DTD SVG 1.1//EN" "http://www.w3.org/Graphics/SVG/1.1/DTD/svg11.dtd">
<svg version="1.1" xmlns="http://www.w3.org/2000/svg" xmlns:xlink="http://www.w3.org/1999/xlink" x="0px" y="0px" width="500px"
	 height="240px" viewBox="0 0 500 240" enable-background="new 0 0 500 240" xml:space="preserve">
<g id="Layer_2" display="none">
	<rect x="-10.5" y="-20.5" display="inline" stroke="#FFFFFF" stroke-miterlimit="10" width="538" height="296"/>
</g>
<g id="Layer_1">
	<g>
		<path fill="none" stroke="#FFFFFF" stroke-width="3" stroke-miterlimit="10" d="M310.313,71.057
			c40.716-3.569,91.01,2.184,32.597,45.649c-76.211,56.708,40.831,58.681,95.274,31.042"/>
		<g>
			<path fill="none" stroke="#FFFFFF" stroke-width="2" stroke-miterlimit="10" d="M310.278,91.949l-183.372,69.473
				c-5.144,1.947-13.874,3.578-19.374,3.578H10"/>
		</g>
		<line fill="none" stroke="#FFFFFF" stroke-width="2" stroke-miterlimit="10" x1="9.665" y1="164.854" x2="9.915" y2="127.122"/>
		<line fill="none" stroke="#FFFFFF" stroke-miterlimit="10" x1="310.374" y1="55.052" x2="310.235" y2="91.876"/>
		<g>
			<path fill="none" stroke="#FFFFFF" stroke-width="2" stroke-miterlimit="10" d="M126.904,124.442
				c-5.154,1.921-13.871,3.558-19.371,3.558H14.117c-5.5,0-5.783-1.637-0.629-3.558l179.738-66.966
				C198.379,55.556,207.096,54,212.596,54h93.416c5.5,0,5.783,1.556,0.63,3.477L126.904,124.442z"/>
		</g>
		<g>
			<path fill="none" stroke="#FFFFFF" stroke-width="2" stroke-miterlimit="10" d="M124.709,120.728
				c-5.154,1.921-13.871,3.272-19.371,3.272H33.492c-5.5,0-5.783-1.352-0.629-3.272l161.324-60.179
				C199.34,58.628,208.057,57,213.557,57h71.847c5.5,0,5.783,1.628,0.63,3.549L124.709,120.728z"/>
		</g>
		
			<line fill="none" stroke="#FFFFFF" stroke-width="4" stroke-linecap="round" stroke-miterlimit="10" x1="135.565" y1="145.407" x2="163.958" y2="135.293"/>
		
			<rect x="435.581" y="123.638" transform="matrix(0.8539 -0.5204 0.5204 0.8539 -7.0646 254.1645)" fill="none" stroke="#FFFFFF" stroke-width="2" stroke-miterlimit="10" width="27.154" height="32.054"/>
		
			<rect x="458.839" y="109.75" transform="matrix(0.8539 -0.5205 0.5205 0.8539 3.4996 264.0186)" fill="none" stroke="#FFFFFF" stroke-width="2" stroke-miterlimit="10" width="26.213" height="32.054"/>
		
			<rect x="465.546" y="114.382" transform="matrix(0.5294 0.8484 -0.8484 0.5294 320.186 -342.2912)" fill="#FFFFFF" width="6.165" height="6.166"/>
		
			<rect x="474.676" y="129.029" transform="matrix(0.5292 0.8485 -0.8485 0.5292 337.0148 -343.1756)" fill="#FFFFFF" width="6.163" height="6.163"/>
		
			<rect x="471.078" y="111.893" transform="matrix(0.5204 0.8539 -0.8539 0.5204 333.1133 -360.0517)" fill="none" stroke="#FFFFFF" stroke-width="2" stroke-miterlimit="10" width="32.052" height="9.29"/>
	</g>
</g>
</svg>
