<?xml version="1.0" encoding="utf-8"?>
<!-- Generator: Adobe Illustrator 16.0.0, SVG Export Plug-In . SVG Version: 6.00 Build 0)  -->
<!DOCTYPE svg PUBLIC "-//W3C//DTD SVG 1.1//EN" "http://www.w3.org/Graphics/SVG/1.1/DTD/svg11.dtd">
<svg version="1.1" xmlns="http://www.w3.org/2000/svg" xmlns:xlink="http://www.w3.org/1999/xlink" x="0px" y="0px" width="1280px"
	 height="700.358px" viewBox="0 0 1280 700.358" style="enable-background:new 0 0 1280 700.358;" xml:space="preserve">
<g id="Layer_1">
	<g id="icon8">
		<path style="fill:none;stroke:#E6E6E6;stroke-miterlimit:10;" d="M1169.288,588.67c0,6.45-5.278,11.73-11.73,11.73h-76.288
			c-6.453,0-11.732-5.28-11.732-11.73v-76.291c0-6.452,5.279-11.73,11.732-11.73h76.288c6.452,0,11.73,5.278,11.73,11.73V588.67z"/>
	</g>
	<g>
		<path style="fill:#E6E6E6;" d="M310.06,540.768c0,2.922-2.391,5.313-5.314,5.313H270.19c-2.922,0-5.313-2.392-5.313-5.313v-34.556
			c0-2.923,2.391-5.313,5.313-5.313h34.555c2.922,0,5.313,2.391,5.313,5.313L310.06,540.768L310.06,540.768z"/>
	</g>
	<g id="tv">
		<g>
			<path style="fill:none;stroke:#E6E6E6;stroke-width:2;stroke-miterlimit:10;" d="M893.639,447.552
				c0,4.757-3.858,8.611-8.613,8.611H394.973c-4.757,0-8.612-3.854-8.612-8.611v-309.19c0-4.757,3.855-8.612,8.612-8.612h490.052
				c4.755,0,8.613,3.855,8.613,8.612V447.552z"/>
		</g>
		
			<rect x="386.361" y="153.864" style="fill:none;stroke:#E6E6E6;stroke-width:2;stroke-miterlimit:10;" width="507.277" height="259.237"/>
		
			<rect x="847.994" y="425.158" style="fill:none;stroke:#E6E6E6;stroke-width:2;stroke-miterlimit:10;" width="30.142" height="18.086"/>
		
			<rect x="828.183" y="425.158" style="fill:none;stroke:#E6E6E6;stroke-width:2;stroke-miterlimit:10;" width="15.503" height="18.086"/>
		<path style="fill:none;stroke:#E6E6E6;stroke-width:2;stroke-miterlimit:10;" d="M585.005,456.163h109.522
			c0,0,4.286,23.775,21.046,23.775c16.758,0-152.315,0-152.315,0S580.329,480.719,585.005,456.163z"/>
	</g>
	<g id="icon1">
		<g>
			<path style="fill:none;stroke:#E6E6E6;stroke-width:2;stroke-miterlimit:10;" d="M155.701,52.668
				c0,4.285-3.474,7.759-7.759,7.759h-29.483c-4.285,0-7.758-3.474-7.758-7.759V23.186c0-4.285,3.473-7.759,7.758-7.759h29.483
				c4.285,0,7.759,3.474,7.759,7.759V52.668z"/>
		</g>
		<line style="fill:none;stroke:#E6E6E6;stroke-width:2;stroke-miterlimit:10;" x1="120.787" y1="27.84" x2="147.166" y2="27.84"/>
		
			<line style="fill:none;stroke:#E6E6E6;stroke-width:2;stroke-miterlimit:10;" x1="120.787" y1="38.703" x2="147.166" y2="38.703"/>
		
			<line style="fill:none;stroke:#E6E6E6;stroke-width:2;stroke-miterlimit:10;" x1="120.787" y1="48.789" x2="147.166" y2="48.789"/>
	</g>
	<g id="icon2">
		<g>
			<path style="fill:none;stroke:#D7EAF7;stroke-miterlimit:10;" d="M214.145,52.668c0,4.285-3.473,7.759-7.758,7.759h-29.483
				c-4.285,0-7.759-3.474-7.759-7.759V23.186c0-4.285,3.474-7.759,7.759-7.759h29.483c4.285,0,7.758,3.474,7.758,7.759V52.668z"/>
		</g>
		<line style="fill:none;stroke:#D7EAF7;stroke-miterlimit:10;" x1="191.645" y1="24.737" x2="191.645" y2="51.117"/>
		<line style="fill:none;stroke:#D7EAF7;stroke-miterlimit:10;" x1="178.456" y1="37.927" x2="204.835" y2="37.927"/>
	</g>
	<g id="icon1_1_">
		<g>
			<path style="fill:none;stroke:#E6E6E6;stroke-miterlimit:10;" d="M270.5,106.241c0,4.285-3.474,7.759-7.759,7.759h-29.483
				c-4.285,0-7.758-3.474-7.758-7.759V76.759c0-4.285,3.473-7.759,7.758-7.759h29.483c4.285,0,7.759,3.474,7.759,7.759V106.241z"/>
		</g>
		<line style="fill:none;stroke:#E6E6E6;stroke-miterlimit:10;" x1="235.586" y1="81.414" x2="261.965" y2="81.414"/>
		<line style="fill:none;stroke:#E6E6E6;stroke-miterlimit:10;" x1="235.586" y1="92.276" x2="261.965" y2="92.276"/>
		<line style="fill:none;stroke:#E6E6E6;stroke-miterlimit:10;" x1="235.586" y1="102.362" x2="261.965" y2="102.362"/>
	</g>
	<g id="icon2_1_">
		<g>
			<path style="fill:none;stroke:#D7EAF7;stroke-width:2;stroke-miterlimit:10;" d="M214.145,106.241
				c0,4.285-3.473,7.759-7.758,7.759h-29.483c-4.285,0-7.759-3.474-7.759-7.759V76.759c0-4.285,3.474-7.759,7.759-7.759h29.483
				c4.285,0,7.758,3.474,7.758,7.759V106.241z"/>
		</g>
		<line style="fill:none;stroke:#D7EAF7;stroke-width:2;stroke-miterlimit:10;" x1="191.645" y1="78.31" x2="191.645" y2="104.69"/>
		<line style="fill:none;stroke:#D7EAF7;stroke-width:2;stroke-miterlimit:10;" x1="178.456" y1="91.5" x2="204.835" y2="91.5"/>
	</g>
	<g id="icon4">
		<g>
			<path style="fill:none;stroke:#E6E6E6;stroke-width:2;stroke-miterlimit:10;" d="M363.594,195.449
				c4.283,0,7.756,3.474,7.756,7.756v29.472c0,4.282-3.473,7.755-7.756,7.755h-29.471c-4.282,0-7.756-3.473-7.756-7.755v-29.472
				c0-4.282,3.474-7.756,7.756-7.756H363.594L363.594,195.449z"/>
		</g>
		<g>
			<g>
				
					<line style="fill:none;stroke:#E6E6E6;stroke-width:2;stroke-miterlimit:10;" x1="356.614" y1="217.94" x2="334.897" y2="217.94"/>
				<g>
					<polygon style="fill:#E6E6E6;" points="355.839,214.459 361.197,217.553 355.839,220.647 					"/>
				</g>
			</g>
		</g>
	</g>
	<g id="icon5">
		<g>
			<path style="fill:none;stroke:#E6E6E6;stroke-miterlimit:10;" d="M954.508,277.945c0,4.284-3.476,7.759-7.759,7.759h-29.482
				c-4.283,0-7.759-3.475-7.759-7.759v-29.482c0-4.285,3.476-7.759,7.759-7.759h29.482c4.283,0,7.759,3.474,7.759,7.759V277.945z"/>
		</g>
		<line style="fill:none;stroke:#E6E6E6;stroke-miterlimit:10;" x1="919.594" y1="253.117" x2="945.974" y2="253.117"/>
		<line style="fill:none;stroke:#E6E6E6;stroke-miterlimit:10;" x1="919.594" y1="263.979" x2="945.974" y2="263.979"/>
		<line style="fill:none;stroke:#E6E6E6;stroke-miterlimit:10;" x1="919.594" y1="274.065" x2="945.974" y2="274.065"/>
	</g>
	<g id="icon88">
		<g>
			<path style="fill:none;stroke:#D7EAF7;stroke-miterlimit:10;" d="M371.35,167.405c0,4.281-3.472,7.755-7.756,7.755h-29.471
				c-4.284,0-7.756-3.474-7.756-7.755v-29.472c0-4.282,3.472-7.756,7.756-7.756h29.471c4.284,0,7.756,3.474,7.756,7.756V167.405z"/>
		</g>
		<line style="fill:none;stroke:#D7EAF7;stroke-miterlimit:10;" x1="336.449" y1="142.586" x2="362.819" y2="142.586"/>
		<line style="fill:none;stroke:#D7EAF7;stroke-miterlimit:10;" x1="336.449" y1="153.445" x2="362.819" y2="153.445"/>
		<line style="fill:none;stroke:#D7EAF7;stroke-miterlimit:10;" x1="336.449" y1="163.527" x2="362.819" y2="163.527"/>
	</g>
	<g id="icon99">
		<g>
			<path style="fill:#F4F4F4;" d="M370.35,448.385c0,4.282-3.472,7.757-7.756,7.757h-29.471c-4.284,0-7.756-3.475-7.756-7.757
				v-29.471c0-4.282,3.472-7.756,7.756-7.756h29.471c4.284,0,7.756,3.474,7.756,7.756V448.385z"/>
		</g>
		
			<line style="fill:none;stroke:#FFFFFF;stroke-width:2;stroke-miterlimit:10;" x1="347.858" y1="420.464" x2="347.858" y2="446.833"/>
		
			<line style="fill:none;stroke:#FFFFFF;stroke-width:2;stroke-miterlimit:10;" x1="334.674" y1="433.649" x2="361.042" y2="433.649"/>
	</g>
	<g id="icon10">
		<g>
			<path style="fill:none;stroke:#E6E6E6;stroke-miterlimit:10;" d="M954.508,166.99c0,4.284-3.474,7.759-7.759,7.759h-29.482
				c-4.285,0-7.759-3.475-7.759-7.759v-29.482c0-4.284,3.474-7.759,7.759-7.759h29.482c4.285,0,7.759,3.475,7.759,7.759V166.99z"/>
		</g>
		<g>
			<g>
				<line style="fill:none;stroke:#E6E6E6;stroke-miterlimit:10;" x1="932.008" y1="143.714" x2="932.008" y2="165.438"/>
				<g>
					<polygon style="fill:#E6E6E6;" points="929.301,144.49 932.396,139.13 935.491,144.49 					"/>
				</g>
			</g>
		</g>
	</g>
	<g id="icon10_1_">
		<g>
			<path style="fill:none;stroke:#E6E6E6;stroke-miterlimit:10;" d="M917.267,229.182c-4.284,0-7.759-3.474-7.759-7.759V191.94
				c0-4.285,3.475-7.759,7.759-7.759h29.482c4.284,0,7.759,3.474,7.759,7.759v29.482c0,4.285-3.475,7.759-7.759,7.759H917.267z"/>
		</g>
		<g>
			<g>
				<line style="fill:none;stroke:#E6E6E6;stroke-miterlimit:10;" x1="940.542" y1="206.682" x2="918.818" y2="206.682"/>
				<g>
					<polygon style="fill:#E6E6E6;" points="939.767,203.975 945.126,207.069 939.767,210.165 					"/>
				</g>
			</g>
		</g>
	</g>
	<g id="icon11">
		<g>
			<path style="fill:none;stroke:#E6E6E6;stroke-width:2;stroke-miterlimit:10;" d="M1390.167,280.751c0,5.521-4.479,10-10,10h-38
				c-5.523,0-10-4.479-10-10v-38c0-5.521,4.477-10,10-10h38c5.521,0,10,4.479,10,10V280.751z"/>
		</g>
		<g>
			<g>
				
					<line style="fill:none;stroke:#E6E6E6;stroke-width:2;stroke-miterlimit:10;" x1="1361.167" y1="271.751" x2="1361.167" y2="243.751"/>
				<g>
					<polygon style="fill:#E6E6E6;" points="1365.656,270.751 1361.667,277.66 1357.678,270.751 					"/>
				</g>
			</g>
		</g>
	</g>
	<g id="icon69">
		<g>
			<path style="fill:none;stroke:#E6E6E6;stroke-width:2;stroke-miterlimit:10;" d="M1463.5,346.392c0,5.521-4.479,10-10,10h-38
				c-5.521,0-10-4.479-10-10v-38c0-5.522,4.479-10,10-10h38c5.521,0,10,4.478,10,10V346.392z"/>
		</g>
		
			<line style="fill:none;stroke:#E6E6E6;stroke-width:2;stroke-miterlimit:10;" x1="1434.5" y1="310.392" x2="1434.5" y2="344.392"/>
		
			<line style="fill:none;stroke:#E6E6E6;stroke-width:2;stroke-miterlimit:10;" x1="1417.5" y1="327.392" x2="1451.5" y2="327.392"/>
	</g>
	<g id="icon7">
		<g>
			<path style="fill:none;stroke:#E6E6E6;stroke-width:2;stroke-miterlimit:10;" d="M1386.5,148.749c0,5.522-4.479,10-10,10h-38
				c-5.521,0-10-4.478-10-10v-38c0-5.521,4.479-10,10-10h38c5.521,0,10,4.479,10,10V148.749z"/>
		</g>
		<g>
			<g>
				
					<line style="fill:none;stroke:#E6E6E6;stroke-width:2;stroke-miterlimit:10;" x1="1357.5" y1="118.749" x2="1357.5" y2="146.749"/>
				<g>
					<polygon style="fill:#E6E6E6;" points="1354.012,119.749 1358,112.841 1361.988,119.749 					"/>
				</g>
			</g>
		</g>
	</g>
	<g id="icon12">
		<g>
			<path style="fill:none;stroke:#E6E6E6;stroke-width:2;stroke-miterlimit:10;" d="M1478.834,280.751c0,5.521-4.479,10-10,10h-38
				c-5.521,0-10-4.479-10-10v-38c0-5.521,4.479-10,10-10h38c5.521,0,10,4.479,10,10V280.751z"/>
		</g>
		
			<line style="fill:none;stroke:#E6E6E6;stroke-width:2;stroke-miterlimit:10;" x1="1433.834" y1="248.751" x2="1467.834" y2="248.751"/>
		
			<line style="fill:none;stroke:#E6E6E6;stroke-width:2;stroke-miterlimit:10;" x1="1433.834" y1="262.751" x2="1467.834" y2="262.751"/>
		
			<line style="fill:none;stroke:#E6E6E6;stroke-width:2;stroke-miterlimit:10;" x1="1433.834" y1="275.751" x2="1467.834" y2="275.751"/>
	</g>
	<g>
		<g>
			<path style="fill:none;stroke:#E6E6E6;stroke-width:2;stroke-miterlimit:10;" d="M1567.5,280.751c0,5.521-4.479,10-10,10h-38
				c-5.521,0-10-4.479-10-10v-38c0-5.521,4.479-10,10-10h38c5.521,0,10,4.479,10,10V280.751z"/>
		</g>
		
			<line style="fill:none;stroke:#E6E6E6;stroke-width:2;stroke-miterlimit:10;" x1="1538.5" y1="244.751" x2="1538.5" y2="278.751"/>
		
			<line style="fill:none;stroke:#E6E6E6;stroke-width:2;stroke-miterlimit:10;" x1="1521.5" y1="261.751" x2="1555.5" y2="261.751"/>
	</g>
	<g>
		<g>
			<path style="fill:none;stroke:#E6E6E6;stroke-width:2;stroke-miterlimit:10;" d="M1656.167,280.751c0,5.521-4.479,10-10,10h-38
				c-5.521,0-10-4.479-10-10v-38c0-5.521,4.479-10,10-10h38c5.521,0,10,4.479,10,10V280.751z"/>
		</g>
		<g>
			<g>
				
					<line style="fill:none;stroke:#E6E6E6;stroke-width:2;stroke-miterlimit:10;" x1="1627.167" y1="250.751" x2="1627.167" y2="278.751"/>
				<g>
					<polygon style="fill:#E6E6E6;" points="1623.679,251.751 1627.667,244.843 1631.655,251.751 					"/>
				</g>
			</g>
		</g>
	</g>
	<g>
		<rect x="110.7" y="186.395" style="fill:#FFFFFF;" width="200.384" height="49.668"/>
		<circle style="fill:none;stroke:#E6E6E6;stroke-width:2;stroke-miterlimit:10;" cx="137.303" cy="212.084" r="17.602"/>
		
			<line style="fill:none;stroke:#E6E6E6;stroke-width:10;stroke-miterlimit:10;" x1="168.932" y1="212.085" x2="301.665" y2="212.085"/>
	</g>
	<g>
		<rect x="110.7" y="236.062" style="fill:#FFFFFF;" width="200.384" height="49.668"/>
		<circle style="fill:none;stroke:#E6E6E6;stroke-width:2;stroke-miterlimit:10;" cx="137.303" cy="261.753" r="17.602"/>
		
			<line style="fill:none;stroke:#E6E6E6;stroke-width:10;stroke-miterlimit:10;" x1="168.932" y1="261.751" x2="301.665" y2="261.751"/>
	</g>
	<g>
		<rect x="110.7" y="285.73" style="fill:#FFFFFF;" width="200.384" height="49.667"/>
		<circle style="fill:none;stroke:#E6E6E6;stroke-width:2;stroke-miterlimit:10;" cx="137.303" cy="311.421" r="17.602"/>
		
			<line style="fill:none;stroke:#E6E6E6;stroke-width:10;stroke-miterlimit:10;" x1="168.932" y1="311.421" x2="301.665" y2="311.421"/>
	</g>
	<g>
		<rect x="110.7" y="335.398" style="fill:#FFFFFF;" width="200.384" height="49.667"/>
		<circle style="fill:none;stroke:#E6E6E6;stroke-width:2;stroke-miterlimit:10;" cx="137.303" cy="361.088" r="17.602"/>
		
			<line style="fill:none;stroke:#E6E6E6;stroke-width:10;stroke-miterlimit:10;" x1="168.932" y1="361.089" x2="301.665" y2="361.089"/>
	</g>
	<g id="phone">
		<g>
			<path style="fill:none;stroke:#E6E6E6;stroke-width:2;stroke-miterlimit:10;" d="M311.084,447.578
				c0,4.729-3.833,8.563-8.563,8.563H119.264c-4.729,0-8.563-3.834-8.563-8.563V140.152c0-4.729,3.834-8.563,8.563-8.563h183.256
				c4.73,0,8.563,3.835,8.563,8.563V447.578z"/>
		</g>
		<circle style="fill:none;stroke:#E6E6E6;stroke-width:2;stroke-miterlimit:10;" cx="206.611" cy="433.876" r="14.558"/>
		
			<rect x="110.7" y="155.565" style="fill:none;stroke:#E6E6E6;stroke-width:2;stroke-miterlimit:10;" width="200.384" height="257.76"/>
	</g>
	<g>
		
			<rect x="110.7" y="155.565" style="fill:none;stroke:#E6E6E6;stroke-width:2;stroke-miterlimit:10;" width="200.384" height="30.828"/>
		<text transform="matrix(1 0 0 1 188.4854 175.457)" style="fill:#CCCCCC; font-family:'MyriadPro-Regular'; font-size:10.2761;">News feed</text>
	</g>
	<g id="line01">
		<g>
			<g>
				<path style="fill:none;stroke:#D7EAF7;stroke-miterlimit:10;" d="M132,69v43.249c0,5.5,4.5,10,10,10h165.959c5.5,0,10,4.5,10,10
					V483.85c0,5.5,4.5,10,10,10h195.307c5.5,0,14.5,0,20,0h194.628c5.5,0,14.5,0,20,0h194.999c5.5,0,10-4.5,10-10V132.249
					c0-5.5,4.5-10,10-10h136.327c5.5,0,10-1.231,10-2.736s0-3.009,0-3.343s-0.393-0.609-0.872-0.613c0,0,0,0-0.435-0.011
					c-0.681-0.018-0.681-0.018-0.681-0.018c-0.743-0.042-5.71-1.191-11.038-2.554c0,0-13.341-3.414-21.581-11.296
					c-9.527-9.115-15.462-21.957-15.462-36.184c0-27.652,22.417-50.068,50.068-50.068c27.652,0,50.068,22.417,50.068,50.068
					c0,24.653-17.818,45.145-41.278,49.299"/>
			</g>
		</g>
	</g>
	
		<circle id="line01_x5F_circle" style="fill:none;stroke:#E6E6E6;stroke-width:2;stroke-miterlimit:10;" cx="1119.22" cy="65.495" r="37.787"/>
	<text transform="matrix(1 0 0 1 325.9277 78.4912)" style="font-family:'Merriweather'; font-size:33;">Clean, functional interfaces - no fluff.</text>
	<text transform="matrix(1 0 0 1 406.8604 531.6152)" style="fill:#3C8FCD; font-family:'Merriweather-Bold'; font-size:28;">Choose a device to explore with:</text>
	<text transform="matrix(1 0 0 1 1104.6445 83.9121)" style="fill:#E6E6E6; font-family:'FontAwesome'; font-size:45.3448;"></text>
	
		<circle id="line01_x5F_circle_1_" style="fill:none;stroke:#E6E6E6;stroke-width:2;stroke-miterlimit:10;" cx="159.508" cy="550.43" r="37.787"/>
	<text transform="matrix(-1 0 0 1 177.3271 565.8477)" style="fill:#E6E6E6; font-family:'FontAwesome'; font-size:45.3448;"></text>
	<g>
		<text transform="matrix(1 0 0 1 1092.5908 572.9639)" style="fill:#E6E6E6; font-family:'FontAwesome'; font-size:59.8509;"></text>
		
			<text transform="matrix(1 0 0 1 1092.5908 572.9639)" style="fill:none;stroke:#FFFFFF;stroke-miterlimit:10; font-family:'FontAwesome'; font-size:59.8509;"></text>
	</g>
	<text transform="matrix(1 0 0 1 275.5679 533.6533)" style="fill:#FFFFFF; font-family:'FontAwesome'; font-size:27.1092;"></text>
	<circle style="fill:#F4F4F4;" cx="992.494" cy="577.967" r="22.5"/>
	<circle style="fill:#F4F4F4;" cx="992.494" cy="523.002" r="12.47"/>
	<g>
		
			<line style="fill:none;stroke:#F4F4F4;stroke-width:2;stroke-miterlimit:10;" x1="334.674" y1="585.341" x2="334.674" y2="600.341"/>
		
			<line style="fill:none;stroke:#F4F4F4;stroke-width:2;stroke-miterlimit:10;" x1="354.416" y1="585.341" x2="354.416" y2="600.341"/>
		
			<line style="fill:none;stroke:#F4F4F4;stroke-width:2;stroke-miterlimit:10;" x1="374.158" y1="585.341" x2="374.158" y2="600.341"/>
		
			<line style="fill:none;stroke:#F4F4F4;stroke-width:2;stroke-miterlimit:10;" x1="393.901" y1="585.341" x2="393.901" y2="600.341"/>
		
			<line style="fill:none;stroke:#F4F4F4;stroke-width:2;stroke-miterlimit:10;" x1="413.644" y1="585.341" x2="413.644" y2="600.341"/>
		
			<line style="fill:none;stroke:#F4F4F4;stroke-width:2;stroke-miterlimit:10;" x1="433.385" y1="585.341" x2="433.385" y2="600.341"/>
		
			<line style="fill:none;stroke:#F4F4F4;stroke-width:2;stroke-miterlimit:10;" x1="453.127" y1="585.341" x2="453.127" y2="600.341"/>
		
			<line style="fill:none;stroke:#F4F4F4;stroke-width:2;stroke-miterlimit:10;" x1="472.87" y1="585.341" x2="472.87" y2="600.341"/>
		
			<line style="fill:none;stroke:#F4F4F4;stroke-width:2;stroke-miterlimit:10;" x1="492.612" y1="585.341" x2="492.612" y2="600.341"/>
		
			<line style="fill:none;stroke:#F4F4F4;stroke-width:2;stroke-miterlimit:10;" x1="512.354" y1="585.341" x2="512.354" y2="600.341"/>
		
			<line style="fill:none;stroke:#F4F4F4;stroke-width:2;stroke-miterlimit:10;" x1="532.097" y1="585.341" x2="532.097" y2="600.341"/>
		
			<line style="fill:none;stroke:#F4F4F4;stroke-width:2;stroke-miterlimit:10;" x1="551.839" y1="585.341" x2="551.839" y2="600.341"/>
		
			<line style="fill:none;stroke:#F4F4F4;stroke-width:2;stroke-miterlimit:10;" x1="571.581" y1="585.341" x2="571.581" y2="600.341"/>
		
			<line style="fill:none;stroke:#F4F4F4;stroke-width:2;stroke-miterlimit:10;" x1="591.323" y1="585.341" x2="591.323" y2="600.341"/>
		
			<line style="fill:none;stroke:#F4F4F4;stroke-width:2;stroke-miterlimit:10;" x1="630.808" y1="585.341" x2="630.808" y2="600.341"/>
		
			<line style="fill:none;stroke:#F4F4F4;stroke-width:2;stroke-miterlimit:10;" x1="670.293" y1="585.341" x2="670.293" y2="600.341"/>
		
			<line style="fill:none;stroke:#F4F4F4;stroke-width:2;stroke-miterlimit:10;" x1="611.065" y1="585.341" x2="611.065" y2="600.341"/>
		
			<line style="fill:none;stroke:#F4F4F4;stroke-width:2;stroke-miterlimit:10;" x1="650.551" y1="585.341" x2="650.551" y2="600.341"/>
		
			<line style="fill:none;stroke:#F4F4F4;stroke-width:2;stroke-miterlimit:10;" x1="690.036" y1="585.341" x2="690.036" y2="600.341"/>
		
			<line style="fill:none;stroke:#F4F4F4;stroke-width:2;stroke-miterlimit:10;" x1="709.778" y1="585.341" x2="709.778" y2="600.341"/>
		
			<line style="fill:none;stroke:#F4F4F4;stroke-width:2;stroke-miterlimit:10;" x1="729.521" y1="585.341" x2="729.521" y2="600.341"/>
		
			<line style="fill:none;stroke:#F4F4F4;stroke-width:2;stroke-miterlimit:10;" x1="749.262" y1="585.341" x2="749.262" y2="600.341"/>
		
			<line style="fill:none;stroke:#F4F4F4;stroke-width:2;stroke-miterlimit:10;" x1="769.006" y1="585.341" x2="769.006" y2="600.341"/>
		
			<line style="fill:none;stroke:#F4F4F4;stroke-width:2;stroke-miterlimit:10;" x1="788.748" y1="585.341" x2="788.748" y2="600.341"/>
		
			<line style="fill:none;stroke:#F4F4F4;stroke-width:2;stroke-miterlimit:10;" x1="808.489" y1="585.341" x2="808.489" y2="600.341"/>
		
			<line style="fill:none;stroke:#F4F4F4;stroke-width:2;stroke-miterlimit:10;" x1="828.231" y1="585.341" x2="828.231" y2="600.341"/>
		
			<line style="fill:none;stroke:#F4F4F4;stroke-width:2;stroke-miterlimit:10;" x1="847.975" y1="585.341" x2="847.975" y2="600.341"/>
		
			<line style="fill:none;stroke:#F4F4F4;stroke-width:2;stroke-miterlimit:10;" x1="867.718" y1="585.341" x2="867.718" y2="600.341"/>
		
			<line style="fill:none;stroke:#F4F4F4;stroke-width:2;stroke-miterlimit:10;" x1="887.459" y1="585.341" x2="887.459" y2="600.341"/>
		
			<line style="fill:none;stroke:#F4F4F4;stroke-width:2;stroke-miterlimit:10;" x1="907.201" y1="585.341" x2="907.201" y2="600.341"/>
		
			<line style="fill:none;stroke:#F4F4F4;stroke-width:2;stroke-miterlimit:10;" x1="926.943" y1="585.341" x2="926.943" y2="600.341"/>
		
			<line style="fill:none;stroke:#F4F4F4;stroke-width:2;stroke-miterlimit:10;" x1="946.686" y1="585.341" x2="946.686" y2="600.341"/>
	</g>
	<g>
		<rect x="469.75" y="154.119" style="fill:none;stroke:#F5F5F5;stroke-miterlimit:10;" width="345.312" height="258.983"/>
		<rect x="469.75" y="154.119" style="fill:none;stroke:#E6E6E6;stroke-miterlimit:10;" width="345.312" height="25.291"/>
		<g>
			<rect x="469.75" y="154.119" style="fill:none;stroke:#E6E6E6;stroke-miterlimit:10;" width="23.346" height="25.291"/>
			<text transform="matrix(0.9231 0 0 1 477.915 170.5244)" style="fill:#E6E6E6; font-family:'FontAwesome'; font-size:9.4814;"></text>
		</g>
		
			<text transform="matrix(0.9231 0 0 1 628.1865 171.4033)" style="fill:#E6E6E6; font-family:'MyriadPro-Regular'; font-size:12.1818;">Upload</text>
		<g>
			<rect x="760.018" y="154.119" style="fill:none;stroke:#E6E6E6;stroke-miterlimit:10;" width="54.836" height="25.291"/>
			<text transform="matrix(0.9231 0 0 1 802.8486 170.5234)" style="fill:#C6C6C5; font-family:'FontAwesome'; font-size:9.4813;"></text>
			
				<text transform="matrix(0.9231 0 0 1 770.2441 169.5371)" style="fill:#C6C6C5; font-family:'MyriadPro-Regular'; font-size:7.9011;">Organise</text>
		</g>
		<rect x="510.375" y="332.948" style="fill:none;stroke:#E6E6E6;stroke-miterlimit:10;" width="52.023" height="38.855"/>
		<rect x="581.624" y="332.948" style="fill:none;stroke:#E6E6E6;stroke-miterlimit:10;" width="52.02" height="38.855"/>
		<rect x="654.159" y="332.948" style="fill:none;stroke:#E6E6E6;stroke-miterlimit:10;" width="52.021" height="38.855"/>
		<rect x="723.709" y="332.948" style="fill:none;stroke:#E6E6E6;stroke-miterlimit:10;" width="52.021" height="38.855"/>
		<rect x="510.375" y="272.717" style="fill:none;stroke:#E6E6E6;stroke-miterlimit:10;" width="52.023" height="38.855"/>
		<rect x="581.624" y="272.717" style="fill:none;stroke:#E6E6E6;stroke-miterlimit:10;" width="52.02" height="38.855"/>
		<rect x="654.159" y="272.717" style="fill:none;stroke:#E6E6E6;stroke-miterlimit:10;" width="52.021" height="38.855"/>
		<rect x="723.709" y="272.717" style="fill:none;stroke:#E6E6E6;stroke-miterlimit:10;" width="52.021" height="38.855"/>
		<rect x="510.375" y="215.696" style="fill:none;stroke:#E6E6E6;stroke-miterlimit:10;" width="52.023" height="38.856"/>
		<rect x="581.624" y="215.696" style="fill:none;stroke:#E6E6E6;stroke-miterlimit:10;" width="52.02" height="38.856"/>
		<rect x="654.159" y="215.696" style="fill:none;stroke:#E6E6E6;stroke-miterlimit:10;" width="52.021" height="38.856"/>
		<rect x="723.709" y="215.696" style="fill:none;stroke:#E6E6E6;stroke-miterlimit:10;" width="52.021" height="38.856"/>
		<text transform="matrix(0.924 0 0 1 526.4424 299.8057)" style="fill:#F2F2F2; font-family:'FontAwesome'; font-size:22.3116;"></text>
		<text transform="matrix(0.924 0 0 1 598.1279 299.8057)" style="fill:#F2F2F2; font-family:'FontAwesome'; font-size:22.3116;"></text>
		<text transform="matrix(0.924 0 0 1 669.9521 299.8057)" style="fill:#F2F2F2; font-family:'FontAwesome'; font-size:22.3116;"></text>
	</g>
	<g>
		<path style="fill:none;stroke:#D7EAF7;stroke-miterlimit:10;" d="M206.611,461.889v21.961c0,5.5,4.5,10,10,10h91.348
			c5.5,0,10,4.5,10,10v42.231"/>
	</g>
	<g>
		<path style="fill:none;stroke:#D7EAF7;stroke-miterlimit:10;" d="M962.893,600.341V560.43c0-5.5,4.5-10,10-10h39.602
			c5.5,0,10-4.5,10-10v-36.58c0-5.5-4.5-10-10-10h-42.5"/>
	</g>
	<g>
		<path style="fill:none;stroke:#D7EAF7;stroke-miterlimit:10;" d="M901.249,484.956V132.463c0-5.5-4.5-10-10-10H650
			c-5.5,0-10-4.5-10-10V91.5"/>
	</g>
	<path id="icon9" style="fill:none;stroke:#63BBFF;stroke-miterlimit:10;" d="M901.249,500.502v39.928c0,5.5-4.5,10-10,10H208.316
		c0-26.955-21.852-48.809-48.808-48.809s-48.808,21.854-48.808,48.809c0,26.957,21.852,48.809,48.808,48.809
		c21.723,0,40.13-14.19,46.459-33.809"/>
	<g>
		<path style="fill:none;stroke:#D7EAF7;stroke-miterlimit:10;" d="M317.959,554.208v11.511c0,5.5-4.5,10-10,10h-86.79"/>
	</g>
</g>
<g id="THE_GRID" style="display:none;">
	<rect id="The_plane" x="110" y="15" style="fill:#B5B5B5;" width="1060" height="585"/>
	<rect y="600.358" style="display:inline;fill:#099CD6;" width="1280" height="100"/>
	<rect x="310.459" y="114.749" style="display:inline;" width="15" height="15"/>
	<rect x="525.766" y="114.749" style="display:inline;" width="15" height="15"/>
	<rect x="740.394" y="114.749" style="display:inline;" width="15" height="15"/>
	<rect x="955.393" y="114.749" style="display:inline;" width="15" height="15"/>
	<rect x="310.459" y="486.35" style="display:inline;" width="15" height="15"/>
	<rect x="525.766" y="486.35" style="display:inline;" width="15" height="15"/>
	<rect x="740.394" y="486.35" style="display:inline;" width="15" height="15"/>
	<rect x="955.393" y="486.35" style="display:inline;" width="15" height="15"/>
	<rect x="955.393" y="542.93" style="display:inline;" width="15" height="15"/>
	<rect x="1014.994" y="542.93" style="display:inline;" width="15" height="15"/>
</g>
<g id="OVERLAY" style="display:none;">
	<rect x="110.06" y="15" style="display:inline;opacity:0.1;fill:#E27A7A;" width="200" height="100"/>
	<rect x="325.367" y="15" style="display:inline;opacity:0.1;fill:#E27A7A;" width="200" height="100"/>
	<rect x="539.995" y="15" style="display:inline;opacity:0.1;fill:#E27A7A;" width="200" height="100"/>
	<rect x="754.994" y="15" style="display:inline;opacity:0.1;fill:#E27A7A;" width="199.999" height="100"/>
	<rect x="969.994" y="15" style="display:inline;opacity:0.1;fill:#E27A7A;" width="199.999" height="100"/>
	<rect x="110.06" y="129.749" style="display:inline;opacity:0.1;fill:#E27A7A;" width="200" height="355.207"/>
	<rect x="325.367" y="129.749" style="display:inline;opacity:0.1;fill:#E27A7A;" width="200" height="355.207"/>
	<rect x="539.995" y="129.749" style="display:inline;opacity:0.1;fill:#E27A7A;" width="200" height="355.207"/>
	<rect x="754.994" y="129.749" style="display:inline;opacity:0.1;fill:#E27A7A;" width="199.999" height="355.207"/>
	<rect x="969.994" y="129.749" style="display:inline;opacity:0.1;fill:#E27A7A;" width="199.999" height="355.207"/>
	<rect x="110.06" y="500.502" style="display:inline;opacity:0.1;fill:#E27A7A;" width="200" height="99.856"/>
	<rect x="325.367" y="500.502" style="display:inline;opacity:0.1;fill:#E27A7A;" width="200" height="99.856"/>
	<rect x="539.995" y="500.502" style="display:inline;opacity:0.1;fill:#E27A7A;" width="200" height="99.856"/>
	<rect x="754.994" y="500.502" style="display:inline;opacity:0.1;fill:#E27A7A;" width="199.999" height="99.856"/>
	<rect x="969.994" y="500.502" style="display:inline;opacity:0.1;fill:#E27A7A;" width="199.999" height="99.856"/>
</g>
</svg>
