<?xml version="1.0" encoding="utf-8"?>
<!-- Generator: Adobe Illustrator 16.0.0, SVG Export Plug-In . SVG Version: 6.00 Build 0)  -->
<!DOCTYPE svg PUBLIC "-//W3C//DTD SVG 1.1//EN" "http://www.w3.org/Graphics/SVG/1.1/DTD/svg11.dtd">
<svg version="1.1" id="Layer_1" xmlns="http://www.w3.org/2000/svg" xmlns:xlink="http://www.w3.org/1999/xlink" x="0px" y="0px"
	 width="1280px" height="800px" viewBox="0 0 1280 800" enable-background="new 0 0 1280 800" xml:space="preserve">
<g id="icon8">
	<path fill="none" stroke="#E6E6E6" stroke-miterlimit="10" d="M279.985,647.971c0,5.5-4.5,10-10,10h-65.033c-5.5,0-10-4.5-10-10
		v-65.033c0-5.5,4.5-10,10-10h65.033c5.5,0,10,4.5,10,10V647.971z"/>
</g>
<g>
	<path fill="#E6E6E6" d="M165.206,647.971c0,5.5-4.5,10-10,10H90.172c-5.5,0-10-4.5-10-10v-65.033c0-5.5,4.5-10,10-10h65.033
		c5.5,0,10,4.5,10,10V647.971z"/>
</g>
<g id="tv">
	<g>
		<path fill="none" stroke="#F4F4F4" stroke-width="2" stroke-miterlimit="10" d="M935,406c0,5.522-4.479,10-10,10H356
			c-5.523,0-10-4.478-10-10V47c0-5.523,4.477-10,10-10h569c5.521,0,10,4.477,10,10V406z"/>
	</g>
	<rect x="346" y="65" fill="none" stroke="#E6E6E6" stroke-width="2" stroke-miterlimit="10" width="589" height="301"/>
	<rect x="882" y="380" fill="none" stroke="#E6E6E6" stroke-width="2" stroke-miterlimit="10" width="35" height="21"/>
	<rect x="859" y="380" fill="none" stroke="#E6E6E6" stroke-width="2" stroke-miterlimit="10" width="18" height="21"/>
</g>
<g id="icon1">
	<g>
		<path fill="none" stroke="#E6E6E6" stroke-width="2" stroke-miterlimit="10" d="M138.172,85c0,5.522-4.477,10-10,10h-38
			c-5.523,0-10-4.478-10-10V47c0-5.522,4.477-10,10-10h38c5.523,0,10,4.478,10,10V85z"/>
	</g>
	<line fill="none" stroke="#E6E6E6" stroke-width="2" stroke-miterlimit="10" x1="93.172" y1="53" x2="127.172" y2="53"/>
	<line fill="none" stroke="#E6E6E6" stroke-width="2" stroke-miterlimit="10" x1="93.172" y1="67" x2="127.172" y2="67"/>
	<line fill="none" stroke="#E6E6E6" stroke-width="2" stroke-miterlimit="10" x1="93.172" y1="80" x2="127.172" y2="80"/>
</g>
<g id="icon2">
	<g>
		<path fill="none" stroke="#D7EAF7" stroke-width="2" stroke-miterlimit="10" d="M250,85c0,5.522-4.477,10-10,10h-38
			c-5.523,0-10-4.478-10-10V47c0-5.522,4.477-10,10-10h38c5.523,0,10,4.478,10,10V85z"/>
	</g>
	<line fill="none" stroke="#D7EAF7" stroke-width="2" stroke-miterlimit="10" x1="221" y1="49" x2="221" y2="83"/>
	<line fill="none" stroke="#D7EAF7" stroke-width="2" stroke-miterlimit="10" x1="204" y1="66" x2="238" y2="66"/>
</g>
<g id="icon3">
	<g>
		<path fill="none" stroke="#E6E6E6" stroke-width="2" stroke-miterlimit="10" d="M365,541.454c5.522,0,10,4.477,10,10v38
			c0,5.523-4.478,10-10,10h-38c-5.522,0-10-4.477-10-10v-38c0-5.523,4.478-10,10-10H365z"/>
	</g>
	<g>
		<g>
			<line fill="none" stroke="#E6E6E6" stroke-width="2" stroke-miterlimit="10" x1="335" y1="570.454" x2="363" y2="570.454"/>
			<g>
				<polygon fill="#E6E6E6" points="336,573.943 329.092,569.954 336,565.965 				"/>
			</g>
		</g>
	</g>
</g>
<g id="icon4">
	<g>
		<path fill="none" stroke="#E6E6E6" stroke-width="2" stroke-miterlimit="10" d="M128.172,506.454c5.522,0,10,4.479,10,10v38
			c0,5.523-4.478,10-10,10h-38c-5.522,0-10-4.477-10-10v-38c0-5.521,4.478-10,10-10H128.172z"/>
	</g>
	<g>
		<g>
			
				<line fill="none" stroke="#E6E6E6" stroke-width="2" stroke-miterlimit="10" x1="119.172" y1="535.454" x2="91.172" y2="535.454"/>
			<g>
				<polygon fill="#E6E6E6" points="118.172,530.965 125.081,534.954 118.172,538.943 				"/>
			</g>
		</g>
	</g>
</g>
<g id="icon5">
	<g>
		<path fill="none" stroke="#E6E6E6" stroke-width="2" stroke-miterlimit="10" d="M781.667,486.454c0,5.522-4.479,10-10,10h-38
			c-5.521,0-10-4.478-10-10v-38c0-5.522,4.479-10,10-10h38c5.521,0,10,4.478,10,10V486.454z"/>
	</g>
	
		<line fill="none" stroke="#E6E6E6" stroke-width="2" stroke-miterlimit="10" x1="736.667" y1="454.454" x2="770.667" y2="454.454"/>
	
		<line fill="none" stroke="#E6E6E6" stroke-width="2" stroke-miterlimit="10" x1="736.667" y1="468.454" x2="770.667" y2="468.454"/>
	
		<line fill="none" stroke="#E6E6E6" stroke-width="2" stroke-miterlimit="10" x1="736.667" y1="481.454" x2="770.667" y2="481.454"/>
</g>
<rect id="icon6" x="346" y="65" fill="none" stroke="#D7EAF7" stroke-width="2" stroke-miterlimit="10" width="589" height="301"/>
<g id="icon88">
	<g>
		<path fill="none" stroke="#D7EAF7" stroke-width="2" stroke-miterlimit="10" d="M138.172,482.454c0,5.521-4.477,10-10,10h-38
			c-5.523,0-10-4.479-10-10v-38c0-5.521,4.477-10,10-10h38c5.523,0,10,4.479,10,10V482.454z"/>
	</g>
	<line fill="none" stroke="#D7EAF7" stroke-width="2" stroke-miterlimit="10" x1="93.172" y1="450.454" x2="127.172" y2="450.454"/>
	<line fill="none" stroke="#D7EAF7" stroke-width="2" stroke-miterlimit="10" x1="93.172" y1="464.454" x2="127.172" y2="464.454"/>
	<line fill="none" stroke="#D7EAF7" stroke-width="2" stroke-miterlimit="10" x1="93.172" y1="477.454" x2="127.172" y2="477.454"/>
</g>
<g id="icon9">
	<g>
		<path fill="none" stroke="#E6E6E6" stroke-width="2" stroke-miterlimit="10" d="M279,540.454c0,5.521-4.477,10-10,10h-38
			c-5.523,0-10-4.479-10-10v-38c0-5.521,4.477-10,10-10h38c5.523,0,10,4.479,10,10V540.454z"/>
	</g>
	<line fill="none" stroke="#E6E6E6" stroke-width="2" stroke-miterlimit="10" x1="250" y1="504.454" x2="250" y2="538.454"/>
	<line fill="none" stroke="#E6E6E6" stroke-width="2" stroke-miterlimit="10" x1="233" y1="521.454" x2="267" y2="521.454"/>
</g>
<g id="icon10">
	<g>
		<path fill="none" stroke="#E6E6E6" stroke-width="2" stroke-miterlimit="10" d="M604.333,571.454c0,5.521-4.477,10-10,10h-38
			c-5.523,0-10-4.479-10-10v-38c0-5.521,4.477-10,10-10h38c5.523,0,10,4.479,10,10V571.454z"/>
	</g>
	<g>
		<g>
			
				<line fill="none" stroke="#E6E6E6" stroke-width="2" stroke-miterlimit="10" x1="575.333" y1="541.454" x2="575.333" y2="569.454"/>
			<g>
				<polygon fill="#E6E6E6" points="571.844,542.454 575.833,535.546 579.823,542.454 				"/>
			</g>
		</g>
	</g>
</g>
<g id="icon11">
	<g>
		<path fill="none" stroke="#E6E6E6" stroke-width="2" stroke-miterlimit="10" d="M693,571.454c0,5.521-4.479,10-10,10h-38
			c-5.523,0-10-4.479-10-10v-38c0-5.521,4.477-10,10-10h38c5.521,0,10,4.479,10,10V571.454z"/>
	</g>
	<g>
		<g>
			<line fill="none" stroke="#E6E6E6" stroke-width="2" stroke-miterlimit="10" x1="664" y1="562.454" x2="664" y2="534.454"/>
			<g>
				<polygon fill="#E6E6E6" points="668.489,561.454 664.5,568.362 660.511,561.454 				"/>
			</g>
		</g>
	</g>
</g>
<g id="icon69">
	<g>
		<path fill="none" stroke="#E6E6E6" stroke-width="2" stroke-miterlimit="10" d="M870.333,486.454c0,5.522-4.479,10-10,10h-38
			c-5.521,0-10-4.478-10-10v-38c0-5.522,4.479-10,10-10h38c5.521,0,10,4.478,10,10V486.454z"/>
	</g>
	
		<line fill="none" stroke="#E6E6E6" stroke-width="2" stroke-miterlimit="10" x1="841.333" y1="450.454" x2="841.333" y2="484.454"/>
	
		<line fill="none" stroke="#E6E6E6" stroke-width="2" stroke-miterlimit="10" x1="824.333" y1="467.454" x2="858.333" y2="467.454"/>
</g>
<g id="icon7">
	<g>
		<path fill="none" stroke="#E6E6E6" stroke-width="2" stroke-miterlimit="10" d="M1046.5,353.715c0,5.522-4.479,10-10,10h-38
			c-5.521,0-10-4.478-10-10v-38c0-5.522,4.479-10,10-10h38c5.521,0,10,4.478,10,10V353.715z"/>
	</g>
	<g>
		<g>
			
				<line fill="none" stroke="#E6E6E6" stroke-width="2" stroke-miterlimit="10" x1="1017.5" y1="323.715" x2="1017.5" y2="351.715"/>
			<g>
				<polygon fill="#E6E6E6" points="1014.012,324.715 1018,317.807 1021.988,324.715 				"/>
			</g>
		</g>
	</g>
</g>
<g id="icon12">
	<g>
		<path fill="none" stroke="#E6E6E6" stroke-width="2" stroke-miterlimit="10" d="M781.667,571.454c0,5.521-4.479,10-10,10h-38
			c-5.521,0-10-4.479-10-10v-38c0-5.521,4.479-10,10-10h38c5.521,0,10,4.479,10,10V571.454z"/>
	</g>
	
		<line fill="none" stroke="#E6E6E6" stroke-width="2" stroke-miterlimit="10" x1="736.667" y1="539.454" x2="770.667" y2="539.454"/>
	
		<line fill="none" stroke="#E6E6E6" stroke-width="2" stroke-miterlimit="10" x1="736.667" y1="553.454" x2="770.667" y2="553.454"/>
	
		<line fill="none" stroke="#E6E6E6" stroke-width="2" stroke-miterlimit="10" x1="736.667" y1="566.454" x2="770.667" y2="566.454"/>
</g>
<g>
	<g>
		<path fill="none" stroke="#E6E6E6" stroke-width="2" stroke-miterlimit="10" d="M870.333,571.454c0,5.521-4.479,10-10,10h-38
			c-5.521,0-10-4.479-10-10v-38c0-5.521,4.479-10,10-10h38c5.521,0,10,4.479,10,10V571.454z"/>
	</g>
	
		<line fill="none" stroke="#E6E6E6" stroke-width="2" stroke-miterlimit="10" x1="841.333" y1="535.454" x2="841.333" y2="569.454"/>
	
		<line fill="none" stroke="#E6E6E6" stroke-width="2" stroke-miterlimit="10" x1="824.333" y1="552.454" x2="858.333" y2="552.454"/>
</g>
<g>
	<g>
		<path fill="none" stroke="#E6E6E6" stroke-width="2" stroke-miterlimit="10" d="M959,571.454c0,5.521-4.479,10-10,10h-38
			c-5.521,0-10-4.479-10-10v-38c0-5.521,4.479-10,10-10h38c5.521,0,10,4.479,10,10V571.454z"/>
	</g>
	<g>
		<g>
			<line fill="none" stroke="#E6E6E6" stroke-width="2" stroke-miterlimit="10" x1="930" y1="541.454" x2="930" y2="569.454"/>
			<g>
				<polygon fill="#E6E6E6" points="926.512,542.454 930.5,535.546 934.488,542.454 				"/>
			</g>
		</g>
	</g>
</g>
<g>
	<rect x="80.172" y="187.386" fill="#FFFFFF" width="169.828" height="42.094"/>
	<circle fill="none" stroke="#E6E6E6" stroke-width="2" stroke-miterlimit="10" cx="102.719" cy="209.158" r="14.918"/>
	
		<line fill="none" stroke="#E6E6E6" stroke-width="10" stroke-miterlimit="10" x1="129.524" y1="209.159" x2="242.017" y2="209.159"/>
</g>
<g>
	<rect x="80.172" y="229.48" fill="#FFFFFF" width="169.828" height="42.094"/>
	<circle fill="none" stroke="#E6E6E6" stroke-width="2" stroke-miterlimit="10" cx="102.719" cy="251.253" r="14.918"/>
	
		<line fill="none" stroke="#E6E6E6" stroke-width="10" stroke-miterlimit="10" x1="129.524" y1="251.252" x2="242.017" y2="251.252"/>
</g>
<g>
	<rect x="80.172" y="271.574" fill="#FFFFFF" width="169.828" height="42.094"/>
	<circle fill="none" stroke="#E6E6E6" stroke-width="2" stroke-miterlimit="10" cx="102.719" cy="293.347" r="14.918"/>
	
		<line fill="none" stroke="#E6E6E6" stroke-width="10" stroke-miterlimit="10" x1="129.524" y1="293.347" x2="242.017" y2="293.347"/>
</g>
<g>
	<rect x="80.172" y="313.668" fill="#FFFFFF" width="169.828" height="42.094"/>
	<circle fill="none" stroke="#E6E6E6" stroke-width="2" stroke-miterlimit="10" cx="102.719" cy="335.44" r="14.918"/>
	
		<line fill="none" stroke="#E6E6E6" stroke-width="10" stroke-miterlimit="10" x1="129.524" y1="335.441" x2="242.017" y2="335.441"/>
</g>
<g id="phone">
	<g>
		<path fill="none" stroke="#E6E6E6" stroke-width="2" stroke-miterlimit="10" d="M250,408.742c0,4.008-3.249,7.258-7.258,7.258
			H87.43c-4.008,0-7.257-3.25-7.257-7.258V148.195c0-4.008,3.249-7.258,7.257-7.258h155.312c4.009,0,7.258,3.25,7.258,7.258V408.742
			z"/>
	</g>
	<circle fill="none" stroke="#E6E6E6" stroke-width="2" stroke-miterlimit="10" cx="161.458" cy="397.13" r="12.338"/>
	
		<rect x="80.172" y="161.258" fill="none" stroke="#E6E6E6" stroke-width="2" stroke-miterlimit="10" width="169.828" height="218.454"/>
</g>
<g>
	
		<rect x="80.172" y="161.258" fill="none" stroke="#E6E6E6" stroke-width="2" stroke-miterlimit="10" width="169.828" height="26.127"/>
	<text transform="matrix(1 0 0 1 146.0957 178.1162)" fill="#CCCCCC" font-family="'MyriadPro-Regular'" font-size="8.7091">News feed</text>
</g>
<g id="line01">
	<path fill="none" stroke="#D7EAF7" stroke-miterlimit="10" d="M161.458,434.454h23.495c5.5,0,10,4.5,10,10v107c0,5.5,4.5,10,10,10
		H285.5c5.5,0,10,4.5,10,10V605.5c0,5.5,4.5,10,10,10h776c5.5,0,10-4.5,10-10v-38.991c0-5.5,0-14.5,0-20v-298
		c-2.375,0-4.731-0.078-7.066-0.231c-55.247-3.636-98.934-49.601-98.934-105.769c0-58.542,47.458-106,106-106s106,47.458,106,106
		c0,52.193-37.723,95.576-87.391,104.372"/>
</g>
<circle id="line01_x5F_circle" fill="none" stroke="#E6E6E6" stroke-width="2" stroke-miterlimit="10" cx="1091.5" cy="142.509" r="80"/>
<text transform="matrix(1 0 0 1 368.8472 131)" font-family="'Merriweather'" font-size="29">Clean functional interfaces - no fluff.</text>
<text transform="matrix(1 0 0 1 495.9561 292.5)" fill="#3C8FCD" font-family="'Merriweather'" font-size="18">Choose a device to explore with:</text>
<text transform="matrix(1 0 0 1 1060.6426 181.5)" fill="#E6E6E6" font-family="'FontAwesome'" font-size="96"></text>
<g>
	
		<text transform="matrix(1 0 0 1 214.6035 634.582)" fill="#E6E6E6" stroke="#FFFFFF" stroke-miterlimit="10" font-family="'FontAwesome'" font-size="51.0199"></text>
</g>
<text transform="matrix(1 0 0 1 100.2925 634.582)" fill="#FFFFFF" stroke="#E6E6E6" stroke-miterlimit="10" font-family="'FontAwesome'" font-size="51.0199"></text>
<g>
	<path fill="none" stroke="#D7EAF7" stroke-miterlimit="10" d="M80.172,114.5H269c5.5,0,10,4.5,10,10v299.954c0,5.5-4.5,10-10,10
		h-38c-5.5,0-10,4.5-10,10v23c0,5.5,4.5,10,10,10h53.5c5.5,0,10,4.5,10,10V517.5c0,5.5,4.5,10,10,10h81c5.5,0,10,4.5,10,10v58"/>
</g>
<circle fill="none" stroke="#F4F4F4" stroke-width="2" stroke-miterlimit="10" cx="464.662" cy="555.454" r="41.5"/>
<circle fill="none" stroke="#F4F4F4" stroke-width="2" stroke-miterlimit="10" cx="464.662" cy="555.454" r="23"/>
<g>
	<line fill="none" stroke="#F4F4F4" stroke-width="2" stroke-miterlimit="10" x1="298.5" y1="630.5" x2="298.5" y2="657.971"/>
	<line fill="none" stroke="#F4F4F4" stroke-width="2" stroke-miterlimit="10" x1="324.053" y1="630.5" x2="324.053" y2="657.971"/>
	<line fill="none" stroke="#F4F4F4" stroke-width="2" stroke-miterlimit="10" x1="349.605" y1="630.5" x2="349.605" y2="657.971"/>
	<line fill="none" stroke="#F4F4F4" stroke-width="2" stroke-miterlimit="10" x1="375.158" y1="630.5" x2="375.158" y2="657.971"/>
	<line fill="none" stroke="#F4F4F4" stroke-width="2" stroke-miterlimit="10" x1="400.711" y1="630.5" x2="400.711" y2="657.971"/>
	<line fill="none" stroke="#F4F4F4" stroke-width="2" stroke-miterlimit="10" x1="426.264" y1="630.5" x2="426.264" y2="657.971"/>
	<line fill="none" stroke="#F4F4F4" stroke-width="2" stroke-miterlimit="10" x1="451.816" y1="630.5" x2="451.816" y2="657.971"/>
	<line fill="none" stroke="#F4F4F4" stroke-width="2" stroke-miterlimit="10" x1="477.369" y1="630.5" x2="477.369" y2="657.971"/>
	<line fill="none" stroke="#F4F4F4" stroke-width="2" stroke-miterlimit="10" x1="502.922" y1="630.5" x2="502.922" y2="657.971"/>
	<line fill="none" stroke="#F4F4F4" stroke-width="2" stroke-miterlimit="10" x1="528.475" y1="630.5" x2="528.475" y2="657.971"/>
	<line fill="none" stroke="#F4F4F4" stroke-width="2" stroke-miterlimit="10" x1="554.028" y1="630.5" x2="554.028" y2="657.971"/>
	<line fill="none" stroke="#F4F4F4" stroke-width="2" stroke-miterlimit="10" x1="579.581" y1="630.5" x2="579.581" y2="657.971"/>
	<line fill="none" stroke="#F4F4F4" stroke-width="2" stroke-miterlimit="10" x1="605.133" y1="630.5" x2="605.133" y2="657.971"/>
	<line fill="none" stroke="#F4F4F4" stroke-width="2" stroke-miterlimit="10" x1="630.686" y1="630.5" x2="630.686" y2="657.971"/>
	<line fill="none" stroke="#F4F4F4" stroke-width="2" stroke-miterlimit="10" x1="681.791" y1="630.5" x2="681.791" y2="657.971"/>
	<line fill="none" stroke="#F4F4F4" stroke-width="2" stroke-miterlimit="10" x1="732.897" y1="630.5" x2="732.897" y2="657.971"/>
	<line fill="none" stroke="#F4F4F4" stroke-width="2" stroke-miterlimit="10" x1="656.238" y1="630.5" x2="656.238" y2="657.971"/>
	<line fill="none" stroke="#F4F4F4" stroke-width="2" stroke-miterlimit="10" x1="707.344" y1="630.5" x2="707.344" y2="657.971"/>
	<line fill="none" stroke="#F4F4F4" stroke-width="2" stroke-miterlimit="10" x1="758.45" y1="630.5" x2="758.45" y2="657.971"/>
	<line fill="none" stroke="#F4F4F4" stroke-width="2" stroke-miterlimit="10" x1="784.003" y1="630.5" x2="784.003" y2="657.971"/>
	<line fill="none" stroke="#F4F4F4" stroke-width="2" stroke-miterlimit="10" x1="809.556" y1="630.5" x2="809.556" y2="657.971"/>
	<line fill="none" stroke="#F4F4F4" stroke-width="2" stroke-miterlimit="10" x1="835.108" y1="630.5" x2="835.108" y2="657.971"/>
	<line fill="none" stroke="#F4F4F4" stroke-width="2" stroke-miterlimit="10" x1="860.661" y1="630.5" x2="860.661" y2="657.971"/>
	<line fill="none" stroke="#F4F4F4" stroke-width="2" stroke-miterlimit="10" x1="886.214" y1="630.5" x2="886.214" y2="657.971"/>
	<line fill="none" stroke="#F4F4F4" stroke-width="2" stroke-miterlimit="10" x1="911.767" y1="630.5" x2="911.767" y2="657.971"/>
	<line fill="none" stroke="#F4F4F4" stroke-width="2" stroke-miterlimit="10" x1="937.319" y1="630.5" x2="937.319" y2="657.971"/>
	<line fill="none" stroke="#F4F4F4" stroke-width="2" stroke-miterlimit="10" x1="962.872" y1="630.5" x2="962.872" y2="657.971"/>
	<line fill="none" stroke="#F4F4F4" stroke-width="2" stroke-miterlimit="10" x1="988.425" y1="630.5" x2="988.425" y2="657.971"/>
	
		<line fill="none" stroke="#F4F4F4" stroke-width="2" stroke-miterlimit="10" x1="1013.978" y1="630.5" x2="1013.978" y2="657.971"/>
	<line fill="none" stroke="#F4F4F4" stroke-width="2" stroke-miterlimit="10" x1="1039.53" y1="630.5" x2="1039.53" y2="657.971"/>
	
		<line fill="none" stroke="#F4F4F4" stroke-width="2" stroke-miterlimit="10" x1="1065.083" y1="630.5" x2="1065.083" y2="657.971"/>
	
		<line fill="none" stroke="#F4F4F4" stroke-width="2" stroke-miterlimit="10" x1="1090.636" y1="630.5" x2="1090.636" y2="657.971"/>
</g>
</svg>
